<svg xmlns="http://www.w3.org/2000/svg" viewBox="0 0 26 16"><defs><style>.cls-1{fill:#929394;}.cls-2{fill:#d4d5d6;}.cls-3{fill:#b6b7b8;}.cls-4{fill:#9fa0a1;}.cls-5{fill:#a81616;}.cls-6{fill:#bd1010;}.cls-7{fill:#f28f8b;}.cls-8{fill:#e64c41;}.cls-9{fill:#e3281b;}</style></defs><g id="Layer_2" data-name="Layer 2"><g id="Layer_1-2" data-name="Layer 1"><rect class="cls-1" x="8" y="15" width="10" height="1"/><rect class="cls-1" x="18" y="14" width="3" height="1"/><rect class="cls-2" x="13" y="14" width="5" height="1"/><rect class="cls-2" x="10" y="14" width="2" height="1"/><rect class="cls-1" x="5" y="14" width="3" height="1"/><rect class="cls-1" x="21" y="13" width="2" height="1"/><rect class="cls-2" x="18" y="13" width="3" height="1"/><rect class="cls-1" x="3" y="13" width="2" height="1"/><rect class="cls-1" x="23" y="12" width="1" height="1"/><rect class="cls-2" x="21" y="12" width="2" height="1"/><rect class="cls-3" x="18" y="12" width="3" height="1"/><rect class="cls-4" x="17" y="12" width="1" height="1"/><rect class="cls-5" x="9" y="12" width="8" height="1"/><rect class="cls-4" x="8" y="12" width="1" height="1"/><rect class="cls-1" x="2" y="12" width="1" height="1"/><rect class="cls-1" x="24" y="11" width="1" height="1"/><rect class="cls-2" x="23" y="11" width="1" height="1"/><rect class="cls-3" x="21" y="11" width="2" height="1"/><rect class="cls-4" x="20" y="11" width="1" height="1"/><rect class="cls-5" x="17" y="11" width="3" height="1"/><rect class="cls-6" x="9" y="11" width="8" height="1"/><rect class="cls-5" x="6" y="11" width="3" height="1"/><rect class="cls-4" x="5" y="11" width="1" height="1"/><rect class="cls-1" x="1" y="11" width="1" height="1"/><rect class="cls-1" x="25" y="10" width="1" height="1"/><rect class="cls-4" x="22" y="10" width="1" height="1"/><rect class="cls-5" x="20" y="10" width="2" height="1"/><rect class="cls-6" x="17" y="10" width="3" height="1"/><rect class="cls-7" x="14" y="10" width="3" height="1"/><rect class="cls-8" x="13" y="10" width="1" height="1"/><rect class="cls-7" x="11" y="10" width="2" height="1"/><rect class="cls-8" x="9" y="10" width="2" height="1"/><rect class="cls-6" x="6" y="10" width="3" height="1"/><rect class="cls-5" x="4" y="10" width="2" height="1"/><rect class="cls-4" x="3" y="10" width="1" height="1"/><polygon class="cls-3" points="1 11 2 11 2 12 3 12 3 13 5 13 5 14 8 14 8 15 10 15 10 14 12 14 12 15 13 15 13 14 18 14 18 13 8 13 8 12 5 12 5 11 3 11 3 10 2 10 2 6 1 6 1 7 0 7 0 10 1 10 1 11"/><rect class="cls-1" y="10" width="1" height="1"/><rect class="cls-4" x="23" y="9" width="1" height="1"/><rect class="cls-5" x="22" y="9" width="1" height="1"/><rect class="cls-6" x="20" y="9" width="2" height="1"/><rect class="cls-7" x="17" y="9" width="3" height="1"/><rect class="cls-8" x="6" y="9" width="3" height="1"/><rect class="cls-6" x="4" y="9" width="2" height="1"/><rect class="cls-5" x="3" y="9" width="1" height="1"/><rect class="cls-4" x="2" y="9" width="1" height="1"/><rect class="cls-5" x="23" y="8" width="1" height="1"/><rect class="cls-6" x="22" y="8" width="1" height="1"/><rect class="cls-8" x="21" y="8" width="1" height="1"/><rect class="cls-7" x="20" y="8" width="1" height="1"/><rect class="cls-8" x="4" y="8" width="2" height="1"/><rect class="cls-6" x="3" y="8" width="1" height="1"/><rect class="cls-5" x="2" y="8" width="1" height="1"/><rect class="cls-6" x="23" y="7" width="1" height="1"/><rect class="cls-8" x="22" y="7" width="1" height="1"/><rect class="cls-8" x="3" y="7" width="1" height="1"/><rect class="cls-6" x="2" y="7" width="1" height="1"/><polygon class="cls-3" points="25 6 24 6 24 10 23 10 23 11 25 11 25 10 26 10 26 7 25 7 25 6"/><rect class="cls-8" x="23" y="6" width="1" height="1"/><rect class="cls-8" x="2" y="6" width="1" height="1"/><polygon class="cls-9" points="6 1 6 2 4 2 4 3 3 3 3 4 2 4 2 6 3 6 3 7 4 7 4 8 6 8 6 9 9 9 9 10 17 10 17 9 20 9 20 8 22 8 22 7 23 7 23 6 24 6 24 4 23 4 23 3 22 3 22 2 20 2 20 1 17 1 17 0 9 0 9 1 6 1"/></g></g></svg>