<svg xmlns="http://www.w3.org/2000/svg" viewBox="0 0 26 18"><defs><style>.cls-1{fill:#929394;}.cls-2{fill:#d4d5d6;}.cls-3{fill:#b6b7b8;}.cls-4{fill:#991313;}.cls-5{fill:#ed7c75;}.cls-6{fill:#de3b33;}.cls-7{fill:#b30f0f;}.cls-8{fill:#d61d10;}</style></defs><g id="Layer_2" data-name="Layer 2"><g id="Layer_1-2" data-name="Layer 1"><rect class="cls-1" x="8" y="17" width="10" height="1"/><rect class="cls-1" x="18" y="16" width="3" height="1"/><rect class="cls-2" x="13" y="16" width="5" height="1"/><rect class="cls-2" x="10" y="16" width="2" height="1"/><rect class="cls-1" x="5" y="16" width="3" height="1"/><rect class="cls-1" x="21" y="15" width="2" height="1"/><rect class="cls-2" x="18" y="15" width="3" height="1"/><rect class="cls-1" x="3" y="15" width="2" height="1"/><rect class="cls-1" x="23" y="14" width="1" height="1"/><rect class="cls-2" x="21" y="14" width="2" height="1"/><rect class="cls-3" x="18" y="14" width="3" height="1"/><rect class="cls-1" x="17" y="14" width="1" height="1"/><rect class="cls-4" x="9" y="14" width="8" height="1"/><rect class="cls-1" x="8" y="14" width="1" height="1"/><rect class="cls-1" x="2" y="14" width="1" height="1"/><rect class="cls-1" x="24" y="13" width="1" height="1"/><rect class="cls-2" x="23" y="13" width="1" height="1"/><rect class="cls-3" x="21" y="13" width="2" height="1"/><rect class="cls-1" x="20" y="13" width="1" height="1"/><rect class="cls-4" x="17" y="13" width="3" height="1"/><rect class="cls-4" x="6" y="13" width="3" height="1"/><rect class="cls-1" x="5" y="13" width="1" height="1"/><rect class="cls-1" x="1" y="13" width="1" height="1"/><rect class="cls-1" x="25" y="12" width="1" height="1"/><rect class="cls-1" x="22" y="12" width="1" height="1"/><rect class="cls-4" x="20" y="12" width="2" height="1"/><rect class="cls-4" x="4" y="12" width="2" height="1"/><rect class="cls-1" x="3" y="12" width="1" height="1"/><polygon class="cls-3" points="1 13 2 13 2 14 3 14 3 15 5 15 5 16 8 16 8 17 10 17 10 16 12 16 12 17 13 17 13 16 18 16 18 15 8 15 8 14 5 14 5 13 3 13 3 12 2 12 2 8 1 8 1 9 0 9 0 12 1 12 1 13"/><rect class="cls-1" y="12" width="1" height="1"/><rect class="cls-1" x="23" y="11" width="1" height="1"/><rect class="cls-4" x="22" y="11" width="1" height="1"/><rect class="cls-4" x="3" y="11" width="1" height="1"/><rect class="cls-1" x="2" y="11" width="1" height="1"/><rect class="cls-4" x="23" y="10" width="1" height="1"/><rect class="cls-5" x="14" y="10" width="3" height="1"/><rect class="cls-6" x="13" y="10" width="1" height="1"/><rect class="cls-5" x="11" y="10" width="2" height="1"/><rect class="cls-6" x="9" y="10" width="2" height="1"/><rect class="cls-4" x="2" y="10" width="1" height="1"/><rect class="cls-5" x="17" y="9" width="3" height="1"/><rect class="cls-6" x="6" y="9" width="3" height="1"/><polygon class="cls-3" points="25 8 24 8 24 12 23 12 23 13 25 13 25 12 26 12 26 9 25 9 25 8"/><rect class="cls-6" x="21" y="8" width="1" height="1"/><rect class="cls-5" x="20" y="8" width="1" height="1"/><rect class="cls-6" x="4" y="8" width="2" height="1"/><polygon class="cls-7" points="23 8 22 8 22 9 20 9 20 10 17 10 17 11 9 11 9 10 6 10 6 9 4 9 4 8 3 8 3 7 2 7 2 10 3 10 3 11 4 11 4 12 6 12 6 13 9 13 9 14 17 14 17 13 20 13 20 12 22 12 22 11 23 11 23 10 24 10 24 7 23 7 23 8"/><rect class="cls-6" x="22" y="7" width="1" height="1"/><rect class="cls-6" x="3" y="7" width="1" height="1"/><rect class="cls-6" x="23" y="6" width="1" height="1"/><rect class="cls-6" x="2" y="6" width="1" height="1"/><polygon class="cls-8" points="6 1 6 2 4 2 4 3 3 3 3 4 2 4 2 6 3 6 3 7 4 7 4 8 6 8 6 9 9 9 9 10 17 10 17 9 20 9 20 8 22 8 22 7 23 7 23 6 24 6 24 4 23 4 23 3 22 3 22 2 20 2 20 1 17 1 17 0 9 0 9 1 6 1"/></g></g></svg>