<svg
   height="888px"
   width="888px"
   version="1.1"
   id="Capa_1"
   viewBox="0 0 312.336 312.336"
   xml:space="preserve"
   sodipodi:docname="rounded-cloud-svgrepo-com.svg"
   inkscape:version="1.2.1 (9c6d41e4, 2022-07-14)"
   xmlns:inkscape="http://www.inkscape.org/namespaces/inkscape"
   xmlns:sodipodi="http://sodipodi.sourceforge.net/DTD/sodipodi-0.dtd"
   xmlns="http://www.w3.org/2000/svg"
   xmlns:svg="http://www.w3.org/2000/svg"><defs
   id="defs9" /><sodipodi:namedview
   id="namedview7"
   pagecolor="#505050"
   bordercolor="#eeeeee"
   borderopacity="1"
   inkscape:showpageshadow="0"
   inkscape:pageopacity="0"
   inkscape:pagecheckerboard="0"
   inkscape:deskcolor="#505050"
   showgrid="false"
   inkscape:zoom="0.1501226"
   inkscape:cx="1215.6731"
   inkscape:cy="-36.636722"
   inkscape:window-width="1494"
   inkscape:window-height="963"
   inkscape:window-x="598"
   inkscape:window-y="25"
   inkscape:window-maximized="0"
   inkscape:current-layer="g4" />
<g
   id="g4">

	<path
   style="fill:#fffce8"
   d="M169.125,285.971c-26.075,0-51.285-10.448-69.86-28.814c-6.194,2.667-12.918,4.069-19.697,4.069   c-27.418,0-49.722-22.304-49.722-49.728c0-2.93,0.28-5.901,0.829-8.873C11.391,188.359,0,165.936,0,141.829   c0-37.913,28.617-70.099,65.85-74.938c9.326-24.399,32.555-40.527,58.994-40.527c23.074,0,44.173,12.608,55.241,32.567   c7.972-2.757,16.284-4.153,24.798-4.153c41.947,0,76.072,34.119,76.072,76.06c0,1.76-0.078,3.55-0.233,5.448   c18.843,7.375,31.612,25.729,31.612,46.267c0,29.118-25.347,52.449-54.853,49.459C240.501,264.932,206.299,285.971,169.125,285.971   z"
   id="path2" />
</g>
</svg>
