<svg xmlns="http://www.w3.org/2000/svg" xmlns:xlink="http://www.w3.org/1999/xlink" version="1.1" id="Layer_1" x="0px" y="0px" style="enable-background:new 0 0 1000 1000;" xml:space="preserve" viewBox="122.7 460.2 745.3 96">
<style type="text/css">
	.st0{fill:#FFFFFF;}
	.st1{fill:#25F8E7;}
	.st2{fill:#5E6261;}
	.st3{fill:#7FFF00;}
	.st4{fill:#FF0537;}
	.st5{fill:none;stroke:#000000;stroke-miterlimit:10;}
</style>
<g>
	<g>
		<g id="XMLID_1_">
			<g>
				<path class="st0" d="M773.8,499.7c1,0.3,3,2.7,1.8,5.3c-0.7,1.6-2.5,2.2-4.1,2.2c-1.2,0-2.3-0.3-3-0.8c0,0,0.9,4.5-1.2,6.3      c-1.3,1.1-2.3,1.5-3.3,1.5c-0.6,0-1.3-0.2-1.9-0.4c-1.8-0.7-3.2-2.1-3-5.7c0,0.2-1,0.6-1.2,0.7c-0.8,0.4-1.7,0.6-2.6,0.6      c-0.1,0-0.2,0-0.3,0c-0.9,0-1.7-0.4-2.4-0.9c-1.3-0.9-2-2.1-2.2-3.6c-0.2-1.4,0.1-2.8,0.9-3.9c0.2-0.3,0.4-0.5,0.7-0.7      c0.9-0.9,2.2-1.2,3.5-1.4c-0.5-0.8-2.3-4.4,0.8-7c0,0,1.1-1.1,2.9-1.1c0.8,0,1.6,0.2,2.6,0.7c1.6,0.9,2.3,2.8,2.6,4.5      c0,0,0.5-0.7,1.2-2c0.4-0.8,1.8-1.7,3.2-1.7c1,0,2.2,0.4,3,1.7c0,0,1.7,1.9-0.5,5.2C771.2,499.2,772.8,499.4,773.8,499.7z"/>
				<path class="st0" d="M385.8,503c-0.5,0-1.1-0.2-1.5-0.5c-0.8-0.6-1.3-1.3-1.4-2.3c-0.1-0.9,0.1-1.7,0.6-2.5      c0.1-0.2,0.3-0.3,0.4-0.5c0.6-0.5,1.4-0.8,2.2-0.9c-0.3-0.5-1.5-2.7,0.5-4.4c0,0,0.7-0.7,1.8-0.7c0.5,0,1,0.1,1.6,0.4      c1,0.6,1.4,1.8,1.6,2.8c0,0,0.3-0.4,0.8-1.3c0.3-0.5,1.1-1,2-1c0.6,0,1.3,0.3,1.9,1c0,0,1.1,1.2-0.3,3.2c0,0,1,0.1,1.6,0.3      c0.7,0.2,1.9,1.7,1.1,3.3c-0.4,1-1.5,1.4-2.5,1.4c-0.7,0-1.4-0.2-1.9-0.5c0,0,0.5,2.8-0.7,3.9c-0.8,0.7-1.4,1-2.1,1      c-0.4,0-0.8-0.1-1.2-0.3c-1.1-0.4-2-1.3-1.9-3.6c0,0.1-0.6,0.4-0.7,0.4c-0.5,0.2-1.1,0.4-1.6,0.4C385.9,503,385.8,503,385.8,503      z"/>
				<path class="st0" d="M287.4,500.4c1.5,0.5,4.5,3.9,2.7,7.9c-1.1,2.3-3.6,3.2-6,3.2c-1.7,0-3.4-0.5-4.4-1.2c0,0,1.3,6.7-1.7,9.3      c-1.8,1.6-3.4,2.2-4.9,2.2c-0.9,0-1.9-0.2-2.8-0.6c-2.6-1-4.7-3.1-4.4-8.4c0,0.3-1.5,1-1.8,1.1c-1.2,0.6-2.5,0.9-3.9,0.9v0      c-0.1,0-0.3,0-0.4,0c-1.3-0.1-2.5-0.5-3.6-1.3c-1.8-1.3-3-3.1-3.3-5.4c-0.3-2,0.1-4.1,1.4-5.8c0.3-0.4,0.6-0.8,1-1.1      c1.4-1.3,3.3-1.8,5.2-2c-0.8-1.3-3.5-6.5,1.1-10.3c1.2-1,2.7-1.5,4.3-1.5c1.1,0,2.4,0.3,3.8,1.1c2.4,1.3,3.4,4.1,3.8,6.6      c0,0,0.7-1,1.8-3c0.6-1.2,2.6-2.5,4.8-2.5c1.5,0,3.2,0.6,4.4,2.5c0,0,2.5,2.8-0.7,7.6C283.6,499.6,285.9,499.9,287.4,500.4z"/>
				<path class="st0" d="M145.3,495.2c-0.5,0.2-1,0.4-1.6,0.4c-0.1,0-0.1,0-0.2,0c-0.5,0-1-0.2-1.5-0.5c-0.8-0.5-1.3-1.3-1.4-2.2      c-0.1-0.8,0.1-1.7,0.6-2.4c0.1-0.2,0.3-0.3,0.4-0.5c0.6-0.5,1.4-0.8,2.1-0.9c-0.3-0.5-1.4-2.7,0.5-4.3c0,0,0.7-0.6,1.8-0.6      c0.5,0,1,0.1,1.6,0.5c1,0.6,1.4,1.7,1.6,2.8c0,0,0.3-0.4,0.7-1.3c0.3-0.5,1.1-1,2-1c0.6,0,1.3,0.3,1.9,1c0,0,1.1,1.2-0.3,3.2      c0,0,0.9,0.1,1.6,0.3c0.6,0.2,1.9,1.6,1.1,3.3c-0.4,1-1.5,1.4-2.5,1.4c-0.7,0-1.4-0.2-1.8-0.5c0,0,0.5,2.8-0.7,3.9      c-0.8,0.7-1.4,0.9-2.1,0.9c-0.4,0-0.8-0.1-1.2-0.2c-1.1-0.4-2-1.3-1.8-3.5C146,494.9,145.4,495.1,145.3,495.2z"/>
				<polygon points="865.2,463.3 862.4,474.7 859.5,474.7 856.7,463.3 856.7,474.7 853.9,474.7 853.9,460.2 858.3,460.2 861,470.1       863.6,460.2 868,460.2 868,474.7 865.2,474.7     "/>
				<polygon points="840.6,460.2 852.1,460.2 852.1,462.7 847.8,462.7 847.8,474.7 844.9,474.7 844.9,462.7 840.6,462.7     "/>
				<path d="M803.6,480c2.7,0,3.9,0.6,6.3,4.4c2.4,3.9,10.6,16.6,10.7,16.8l1.8,2.9v-19.5c0-1,1.4-4.5,5.4-4.5h0c0,0,0,0,0,0      c0.5,0,2.1,0,3.5,1c1.9,1.4,2.8,4,2.8,7.9v29.9c0,5.6-3.3,7.1-5,7.1c-3.1,0-4.7-1.2-6.4-4.7c-1.8-3.7-11.2-19.9-11.6-20.5      l-1.9-3.2V520c0,5.8-3.2,5.8-5.7,5.8c-2.3,0-6.7-1.5-6.7-7v-30.4C796.9,481.8,801.3,480,803.6,480z"/>
				<path d="M803.6,480c-2.3,0-6.7,1.8-6.7,8.4v30.4c0,5.5,4.4,7,6.7,7c2.5,0,5.7,0,5.7-5.8v-22.6l1.9,3.2      c0.4,0.7,9.8,16.8,11.6,20.5c1.6,3.5,3.3,4.7,6.4,4.7c1.7,0,5-1.5,5-7.1v-29.9c0-3.9-0.9-6.5-2.8-7.9c-1.4-1-2.9-1-3.5-1      c0,0,0,0,0,0h0c-4.1,0-5.4,3.5-5.4,4.5V504l-1.8-2.9c-0.1-0.1-8.3-12.8-10.7-16.8C807.5,480.6,806.3,480,803.6,480z       M803.6,527.8c-3.5,0-8.7-2.4-8.7-9v-30.4c0-7.7,5.2-10.4,8.7-10.4c3.6,0,5.4,1.2,8,5.3c1.7,2.8,6.3,9.9,8.8,13.9v-12.7      c0-2.3,2.5-6.5,7.4-6.5v1l0-1c0.7,0,2.8,0,4.7,1.4c2.4,1.8,3.6,5,3.6,9.5v29.9c0,6.7-4.2,9.1-7,9.1c-3.9,0-6.2-1.6-8.2-5.8      c-1.3-2.6-6.7-12.1-9.6-17.2V520C811.3,527.8,806.1,527.8,803.6,527.8z"/>
				<path d="M763.6,480.1c12.6,0,22.8,10.2,22.8,22.8s-10.2,22.8-22.8,22.8s-22.8-10.2-22.8-22.8S751.1,480.1,763.6,480.1z       M751.4,510.2c1,0.8,2.2,1.2,3.5,1.3c0.1,0,0.3,0,0.4,0c0.7,0,1.4-0.1,2.1-0.3c0.7,2.7,2.5,4,4.1,4.5c1,0.4,1.8,0.5,2.6,0.5      c1.6,0,3.1-0.7,4.7-2c1.5-1.3,1.9-3.3,2-5c0.3,0,0.5,0,0.8,0c2.7,0,4.9-1.3,5.9-3.4c0.8-1.6,0.8-3.4,0-5      c-0.7-1.5-1.9-2.7-3.1-3.1c-0.1,0-0.2-0.1-0.3-0.1c0.6-2.3-0.1-4-0.8-4.9c-1.2-1.6-2.8-2.4-4.6-2.4c-1.4,0-2.9,0.6-3.9,1.5      c-0.5-0.8-1.2-1.4-2.1-1.9c-1.1-0.7-2.3-1-3.6-1c-2.3,0-3.9,1.2-4.2,1.6c-2.5,2.1-2.8,4.8-2.2,7.1c-0.8,0.3-1.5,0.8-2.1,1.3l0,0      l0,0c-0.3,0.3-0.6,0.6-0.9,1c-1.1,1.4-1.5,3.4-1.3,5.4C748.6,507.2,749.7,509,751.4,510.2z"/>
				<path d="M755.4,498.9c-1.3,0.2-2.6,0.5-3.5,1.4c-0.2,0.2-0.5,0.5-0.7,0.7c-0.8,1.1-1.1,2.5-0.9,3.9c0.2,1.5,1,2.7,2.2,3.6      c0.7,0.5,1.5,0.8,2.4,0.9c0.1,0,0.2,0,0.3,0c0.9,0,1.8-0.3,2.6-0.6c0.1-0.1,1.2-0.5,1.2-0.7c-0.2,3.6,1.3,5.1,3,5.7      c0.7,0.2,1.3,0.4,1.9,0.4c1,0,2.1-0.4,3.3-1.5c2-1.8,1.2-6.3,1.2-6.3c0.7,0.5,1.8,0.8,3,0.8c1.6,0,3.4-0.6,4.1-2.2      c1.2-2.7-0.8-5-1.8-5.3c-1-0.3-2.6-0.5-2.6-0.5c2.2-3.3,0.5-5.2,0.5-5.2c-0.9-1.2-2-1.7-3-1.7c-1.5,0-2.8,0.9-3.2,1.7      c-0.7,1.4-1.2,2-1.2,2c-0.3-1.7-1-3.6-2.6-4.5c-0.9-0.5-1.8-0.7-2.6-0.7c-1.8,0-2.9,1.1-2.9,1.1      C753.1,494.5,754.9,498.1,755.4,498.9z M751.4,510.2c-1.7-1.2-2.8-3-3-5c-0.3-2,0.2-3.9,1.3-5.4c0.3-0.4,0.5-0.6,0.9-1l0,0l0,0      c0.6-0.5,1.3-1,2.1-1.3c-0.6-2.4-0.3-5.1,2.2-7.1c0.3-0.3,1.9-1.6,4.2-1.6c1.2,0,2.4,0.3,3.6,1c0.9,0.5,1.5,1.2,2.1,1.9      c1-0.9,2.5-1.5,3.9-1.5c1.8,0,3.5,0.9,4.6,2.4c0.7,0.9,1.4,2.6,0.8,4.9c0.1,0,0.2,0.1,0.3,0.1c1.2,0.4,2.4,1.6,3.1,3.1      c0.7,1.6,0.7,3.4,0,5c-1,2.1-3.2,3.4-5.9,3.4c-0.3,0-0.5,0-0.8,0c-0.1,1.7-0.5,3.7-2,5c-1.5,1.4-3,2-4.7,2      c-0.8,0-1.7-0.2-2.6-0.5c-1.6-0.6-3.4-1.9-4.1-4.5c-0.7,0.2-1.4,0.3-2.1,0.3c-0.1,0-0.3,0-0.4,0      C753.6,511.4,752.4,511,751.4,510.2z"/>
				<path d="M763.6,480.1c-12.6,0-22.8,10.2-22.8,22.8s10.2,22.8,22.8,22.8s22.8-10.2,22.8-22.8S776.2,480.1,763.6,480.1z       M763.6,527.7c-13.7,0-24.8-11.1-24.8-24.8s11.1-24.8,24.8-24.8s24.8,11.1,24.8,24.8S777.3,527.7,763.6,527.7z"/>
				<path d="M731.3,530l0.1,2c-0.3,0-0.7,0-1,0c0,0-0.1,0-0.1,0c0.1-0.7,0.2-1.3,0.2-2C730.7,530.1,731,530,731.3,530z"/>
				<path d="M728.1,494.9c0.4-0.6,0.7-1.3,1-2c0.4,0,0.6,0,0.6,0l0.1,2c0,0-0.2,0-0.4,0C729.1,495,728.7,494.9,728.1,494.9z"/>
				<path d="M728,495c0.1,0,0.2-0.1,0.4-0.1l0.5,1.9c-0.9,0.3-1.9,0.5-2.8,0.6C726.8,496.8,727.5,495.9,728,495z"/>
				<path d="M718.2,507.5L718.2,507.5c0,0.1,0,0.1,0,0.2C718.2,507.6,718.2,507.6,718.2,507.5z"/>
				<path d="M717.7,512.2c-1-1.2-1.5-2.7-1.5-4.3c0-0.1,0-0.3,0-0.4c0-0.1,0-0.2,0-0.3l2,0.3c0,0.1,0,0.1,0,0.2      C718,509.3,717.8,510.8,717.7,512.2z"/>
				<path d="M716.2,507.5c0.1-2.6,1.8-5,4.3-6.1c2.2-0.9,4-2.3,5.5-3.9c0.9-0.2,1.9-0.4,2.8-0.6l0.2,0.1c-1.9,2.7-4.6,4.9-7.7,6.2      c-1.8,0.8-3,2.4-3.1,4.2l-2-0.3C716.3,507.3,716.2,507.4,716.2,507.5z"/>
				<path d="M719.2,528c-3.4-3.8-4.3-10.1-3-20.5c0,0.1,0,0.3,0,0.4c0,1.6,0.6,3.1,1.5,4.3c-0.5,7.2,0.4,11.8,2.9,14.5      c2.1,2.3,5.3,3.4,9.7,3.4c0,0.7-0.1,1.3-0.2,2C725.2,532,721.6,530.7,719.2,528z"/>
				<path d="M710,512.8c0-1-0.1-2.1-0.1-3.2l2-0.1c0,0,0,0.1,0,0.2C711.6,510.8,711,511.9,710,512.8z"/>
				<path class="st1" d="M699,534.1c3.8,0,6.8-0.6,9.1-3c3.3-3.4,4.5-10.1,3.8-21.6c0.1-0.6,0.2-1.1,0.2-1.7c0-2.8-1.7-5.3-4.4-6.5      c-4.6-2-7.9-5.8-9.2-10.4c3.9,2.5,12.3,6.9,22.1,6.9c1.8,0,3.5-0.1,5.4-0.5c-1.5,1.7-3.4,3-5.5,3.9c-2.5,1.1-4.2,3.4-4.3,6.1      c-1.4,10.4-0.4,16.8,3,20.5c2.4,2.7,6,4,11,4c-0.6,3.4-2.3,6.6-4.8,9c-3.3,3.1-7.6,4.7-12.1,4.4c-6.8-0.4-12.6-5-14.6-11.4      C698.8,534.1,698.9,534.1,699,534.1z"/>
				<path d="M698.7,534.1c-0.2-0.7-0.4-1.3-0.5-2c3.7,0.1,6.5-0.3,8.5-2.4c2.6-2.7,3.7-8.1,3.4-17c0.9-0.9,1.5-2,1.9-3.2      c0.7,11.5-0.5,18.1-3.8,21.6c-2.3,2.3-5.3,3-9.1,3C698.9,534.1,698.8,534.1,698.7,534.1z"/>
				<path d="M697.3,534.1c0.5,0,0.9,0,1.3,0c2,6.3,7.8,11,14.6,11.4c4.5,0.2,8.8-1.3,12.1-4.4c2.6-2.5,4.3-5.6,4.8-9      c0,0,0.1,0,0.1,0c0.3,0,0.7,0,1,0l-0.1-2c-0.3,0-0.6,0-0.9,0c0-0.3,0-0.5,0-0.8c0-6.5-3.9-12.4-9.9-15c-1.1-0.5-2.1-1.2-2.8-2.1      c0.1-1.4,0.3-2.9,0.5-4.5c0,0.1,0,0.1,0,0.2c0,2,1.2,3.8,3.1,4.6c6.7,2.9,11.1,9.5,11.1,16.8c0,5.1-2,9.8-5.7,13.3      c-3.4,3.3-7.8,5-12.5,5c-0.3,0-0.7,0-1,0c-7.8-0.4-14.5-5.9-16.6-13.2L697.3,534.1z"/>
				<path d="M698,488.3c-0.1-0.7-0.1-1.3-0.1-2c21,5.9,29.1,6.6,31.2,6.7c-0.3,0.7-0.6,1.3-1,2c-3.3-0.2-11.6-1.4-29.9-6.5      C698.1,488.4,698.1,488.3,698,488.3z"/>
				<path class="st1" d="M698.2,488.4c18.2,5.1,26.6,6.3,29.9,6.5c0,0.1-0.1,0.1-0.1,0.1C714.3,498.7,701.3,490.5,698.2,488.4z"/>
				<path d="M698.6,491.1c-0.3-0.9-0.4-1.8-0.5-2.7c0.1,0,0.1,0,0.2,0c3.1,2.1,16.1,10.3,29.8,6.6c-0.5,0.9-1.2,1.7-1.9,2.5      c-1.8,0.3-3.6,0.5-5.4,0.5C710.9,498,702.5,493.5,698.6,491.1z"/>
				<path d="M697.3,534.1l0.1-2c0.3,0,0.5,0,0.8,0c0.1,0.7,0.3,1.4,0.5,2C698.2,534.1,697.8,534.1,697.3,534.1z"/>
				<path d="M698,488.3c0.1,0,0.1,0.1,0.2,0.1C698.2,488.4,698.1,488.4,698,488.3C698,488.3,698,488.3,698,488.3z"/>
				<path d="M698,488.3C698,488.3,698,488.3,698,488.3c-0.2,0-0.4,0-0.7-0.1l0.2-0.2C697.5,487.9,697.7,488.1,698,488.3z"/>
				<path d="M696.3,489.5l1-1.4c0.2,0.1,0.5,0.1,0.7,0.2c0.1,0.9,0.3,1.8,0.5,2.7C697.3,490.2,696.5,489.6,696.3,489.5z"/>
				<path d="M696,531.1c-0.8-8,3.6-15.4,11-18.6c1.4-0.6,2.4-1.7,2.9-3l0.1,0c0.1,1.1,0.1,2.2,0.1,3.2c-0.6,0.6-1.4,1.2-2.3,1.5      c-6.5,2.8-10.5,9.5-9.8,16.5c0,0.4,0.1,0.8,0.2,1.2c-0.3,0-0.5,0-0.8,0l-0.1,2l-0.7,0.2C696.3,533.2,696.1,532.2,696,531.1z"/>
				<path d="M696.2,489.5c-0.3-1.6-0.3-3.2-0.2-4.9c0.8-8.9,8.2-16,17.2-16.4c5.1-0.3,9.9,1.5,13.5,5c3.7,3.5,5.7,8.2,5.7,13.3      c0,3.9-1.2,7.5-3.3,10.5l-0.2-0.1l-0.5-1.9c-0.1,0-0.2,0.1-0.4,0.1c0,0,0.1-0.1,0.1-0.1c0.6,0,1.1,0.1,1.3,0.1      c0.2,0,0.4,0,0.4,0l-0.1-2c0,0-0.2,0-0.6,0c0.9-2,1.3-4.2,1.3-6.4c0-4.5-1.8-8.7-5.1-11.8c-3.1-2.9-7-4.5-11.2-4.5      c-0.3,0-0.6,0-0.9,0c-8,0.4-14.5,6.7-15.3,14.6c0,0.5-0.1,0.9-0.1,1.4c-0.2-0.1-0.5-0.1-0.7-0.2l-0.5,1.9      c0.2,0.1,0.5,0.1,0.7,0.2l-1,1.4L696.2,489.5z"/>
				<path d="M697.2,486c0.3,0.1,0.5,0.1,0.7,0.2c0,0.7,0,1.4,0.1,2c-0.3-0.2-0.5-0.3-0.5-0.3l-0.2,0.2c-0.2-0.1-0.5-0.1-0.7-0.2      L697.2,486z"/>
				<path d="M707,503.3c-5.8-2.5-9.8-7.7-10.8-13.7l0.1,0c0.1,0.1,0.9,0.7,2.3,1.5c1.3,4.6,4.6,8.4,9.2,10.4      c2.6,1.1,4.4,3.7,4.4,6.5c0,0.6-0.1,1.2-0.2,1.7c0-0.1,0-0.1,0-0.2l-2,0.1l-0.1,0c0.2-0.5,0.3-1.1,0.3-1.6      C710.1,505.9,708.9,504.1,707,503.3z"/>
				<path class="st2" d="M681.1,502.9l-6.1-3.5v7L681.1,502.9z M660,524l3.5-6.1h-7L660,524z M660,481.9l-3.5,6.1h7L660,481.9z       M638.9,502.9l6.1,3.5v-7L638.9,502.9z M637.1,509.9v-14c0-1.2,1-2.2,2.2-2.2h7.3c2.3,0,4.2-1.9,4.2-4.2v-7.3      c0-1.2,1-2.2,2.2-2.2h14c1.2,0,2.2,1,2.2,2.2v7.3c0,2.3,1.9,4.2,4.2,4.2h7.3c1.2,0,2.2,1,2.2,2.2v14c0,1.2-1,2.2-2.2,2.2h-7.3      c-2.3,0-4.2,1.9-4.2,4.2v7.3c0,1.2-1,2.2-2.2,2.2h-14c-1.2,0-2.2-1-2.2-2.2v-7.3c0-2.3-1.9-4.2-4.2-4.2h-7.3      C638.1,512.1,637.1,511.1,637.1,509.9z"/>
				<polygon points="681.1,502.9 675,506.4 675,499.4     "/>
				<polygon points="660,481.9 663.5,487.9 656.5,487.9     "/>
				<polygon points="663.5,517.9 660,524 656.5,517.9     "/>
				<polygon points="645,499.4 645,506.4 638.9,502.9     "/>
				<path d="M635.1,495.9c0-2.3,1.9-4.2,4.2-4.2h7.3c1.2,0,2.2-1,2.2-2.2v-7.3c0-2.3,1.9-4.2,4.2-4.2h14c2.3,0,4.2,1.9,4.2,4.2v7.3      c0,1.2,1,2.2,2.2,2.2h7.3c2.3,0,4.2,1.9,4.2,4.2v14c0,2.3-1.9,4.2-4.2,4.2h-7.3c-1.2,0-2.2,1-2.2,2.2v7.3c0,2.3-1.9,4.2-4.2,4.2      h-14c-2.3,0-4.2-1.9-4.2-4.2v-7.3c0-1.2-1-2.2-2.2-2.2h-7.3c-2.3,0-4.2-1.9-4.2-4.2V495.9z M637.1,509.9c0,1.2,1,2.2,2.2,2.2      h7.3c2.3,0,4.2,1.9,4.2,4.2v7.3c0,1.2,1,2.2,2.2,2.2h14c1.2,0,2.2-1,2.2-2.2v-7.3c0-2.3,1.9-4.2,4.2-4.2h7.3      c1.2,0,2.2-1,2.2-2.2v-14c0-1.2-1-2.2-2.2-2.2h-7.3c-2.3,0-4.2-1.9-4.2-4.2v-7.3c0-1.2-1-2.2-2.2-2.2h-14c-1.2,0-2.2,1-2.2,2.2      v7.3c0,2.3-1.9,4.2-4.2,4.2h-7.3c-1.2,0-2.2,1-2.2,2.2V509.9z"/>
				<path class="st3" d="M595.8,480.9c1,0.5,1.9,1.4,2.6,2.5l18.9,32.7c1.2,2,1.2,4.5,0,6.5c-1.2,2-3.3,3.3-5.6,3.3h-37.8      c-2.4,0-4.5-1.2-5.6-3.3c-1.2-2-1.2-4.5,0-6.5l18.9-32.7c1.3-2.2,3.5-3.2,5.6-3.2c1,0,1.9,0.2,2.8,0.6      C595.6,480.8,595.7,480.9,595.8,480.9z"/>
				<path d="M599,480.9c0.1,0.1,0.3,0.3,0.4,0.4C599.3,481.2,599.2,481.1,599,480.9z"/>
				<path d="M599,480.8C599,480.9,599,480.9,599,480.8C599,480.9,599,480.9,599,480.8z"/>
				<path class="st3" d="M598.4,480.3c2.5-0.5,5.5,0.3,7,3.1l18.9,32.7c1.2,2,1.2,4.5,0,6.5c-1.2,2-3.3,3.3-5.6,3.3h-1.6      c0,0,0.1,0,0.1-0.1c0.1-0.1,0.3-0.3,0.4-0.4c0.1-0.1,0.2-0.2,0.2-0.3c0.1-0.1,0.2-0.2,0.3-0.4c0.1-0.2,0.3-0.3,0.4-0.5      c0,0,0,0,0,0c0.1-0.2,0.3-0.4,0.4-0.6c1.5-2.7,1.5-5.8,0-8.5l-18.9-32.7c-0.2-0.4-0.4-0.7-0.7-1c-0.1-0.1-0.2-0.3-0.4-0.4      c0,0,0,0,0,0c0,0-0.1-0.1-0.1-0.1c0,0,0,0-0.1-0.1c-0.1-0.1-0.2-0.2-0.3-0.3C598.5,480.4,598.5,480.3,598.4,480.3z"/>
				<path d="M605.5,483.4c-1.6-2.8-4.5-3.6-7-3.1c0.1,0,0.1,0.1,0.1,0.1c-0.5-0.5-1.1-0.9-1.8-1.3c-0.1-0.1-0.3-0.2-0.5-0.2      c4-1.8,8.7-0.4,10.9,3.5l18.9,32.7c1.5,2.7,1.5,5.8,0,8.5c-1.5,2.7-4.3,4.3-7.4,4.3h-7.1c2.1,0,4.1-0.8,5.6-2.1      c0,0-0.1,0.1-0.1,0.1h1.6c2.3,0,4.5-1.2,5.6-3.3c1.2-2,1.2-4.5,0-6.5L605.5,483.4z"/>
				<path d="M598.4,483.4c-0.6-1.1-1.5-1.9-2.6-2.5c-0.1-0.1-0.2-0.1-0.4-0.2l-1.3-0.7l1.7-0.9c0.2-0.1,0.3-0.2,0.5-0.2      c0.2,0.1,0.3,0.1,0.5,0.2c0.7,0.3,1.3,0.8,1.8,1.3c0.1,0.1,0.2,0.2,0.3,0.3c0,0,0,0,0.1,0.1c0,0,0.1,0.1,0.1,0.1c0,0,0,0,0,0      c0.1,0.1,0.2,0.3,0.4,0.4c0.3,0.3,0.5,0.7,0.7,1l18.9,32.7c1.5,2.7,1.5,5.8,0,8.5c-0.1,0.2-0.3,0.4-0.4,0.6c0,0,0,0,0,0      c-0.1,0.2-0.3,0.3-0.4,0.5c-0.1,0.1-0.2,0.3-0.3,0.4c-0.1,0.1-0.2,0.2-0.2,0.3c-0.1,0.1-0.3,0.3-0.4,0.4      c-1.5,1.3-3.5,2.1-5.6,2.1v-2c2.4,0,4.5-1.2,5.6-3.3c1.2-2,1.2-4.5,0-6.5L598.4,483.4z"/>
				<path d="M573.9,527.8c-3.1,0-5.8-1.6-7.4-4.3c-1.5-2.7-1.5-5.8,0-8.5l18.9-32.7c2.2-3.8,6.9-5.3,10.9-3.5      c-0.2,0.1-0.3,0.1-0.5,0.2l-1.7,0.9l1.3,0.7c-0.8-0.4-1.8-0.6-2.8-0.6c-2.1,0-4.3,1-5.6,3.2l-18.9,32.7c-1.2,2-1.2,4.5,0,6.5      c1.2,2,3.3,3.3,5.6,3.3h37.8v2H573.9z"/>
				<path d="M525.5,480c4.3,0,7.9,3.5,7.9,7.9v23.7h17.4c3.9,0,7.1,3.2,7.1,7.1c0,3.9-3.2,7.1-7.1,7.1h-24.6c-4.7,0-8.6-3.9-8.6-8.6      v-29.3C517.6,483.5,521.1,480,525.5,480z"/>
				<path d="M525.5,480c-4.4,0-7.9,3.5-7.9,7.9v29.3c0,4.8,3.9,8.6,8.6,8.6h24.6c3.9,0,7.1-3.2,7.1-7.1c0-3.9-3.2-7.1-7.1-7.1h-17.4      v-23.7C533.3,483.5,529.8,480,525.5,480z M526.2,527.8c-5.8,0-10.6-4.8-10.6-10.6v-29.3c0-5.5,4.4-9.9,9.9-9.9      c5.4,0,9.9,4.4,9.9,9.9v21.7h15.4c5,0,9.1,4.1,9.1,9.1c0,5-4.1,9.1-9.1,9.1H526.2z"/>
				<path d="M470.6,480c4.3,0,7.8,3.5,7.8,7.8v17.6c0,3.4,2.8,6.3,6.3,6.3s6.3-2.8,6.3-6.3v-17.8c0-4.2,3.4-7.6,7.6-7.6      c4.2,0,7.6,3.4,7.6,7.6v16.7c0,11.9-9.7,21.6-21.6,21.6c-11.9,0-21.6-9.7-21.6-21.6v-16.5C462.8,483.5,466.3,480,470.6,480z"/>
				<path d="M478.3,487.8c0-4.3-3.5-7.8-7.8-7.8s-7.8,3.5-7.8,7.8v16.5c0,11.9,9.7,21.6,21.6,21.6c11.9,0,21.6-9.7,21.6-21.6v-16.7      c0-4.2-3.4-7.6-7.6-7.6c-4.2,0-7.6,3.4-7.6,7.6v17.8c0,3.4-2.8,6.3-6.3,6.3s-6.3-2.8-6.3-6.3V487.8z M484.4,527.8      c-13,0-23.6-10.6-23.6-23.6v-16.5c0-5.4,4.4-9.8,9.8-9.8s9.8,4.4,9.8,9.8v17.6c0,2.4,1.9,4.3,4.3,4.3c2.4,0,4.3-1.9,4.3-4.3      v-17.8c0-5.3,4.3-9.6,9.6-9.6c5.3,0,9.6,4.3,9.6,9.6v16.7C508,517.3,497.4,527.8,484.4,527.8z"/>
				<path d="M450,520.6v-10.3l-15.5-14.9l-0.6-0.6v-10.6c0-0.6,0.4-1,1-1c0.5,0,1,0.4,1,1v9.1H450v-9.7l-15.1-12.7l-15.1,12.7V494      l15.2,14.7l0.8,0.8V520c0,0.6-0.5,1-1,1c-0.6,0-1-0.4-1-1v-9.1h-14.1v9.7l15.1,14.6L450,520.6z M452,482.9v12.6h-14.6l14.6,14      v12L434.9,538l-17.1-16.6v-12.5h14.6l-14.6-14.1v-12l17.1-14.4L452,482.9z"/>
				<path d="M390.5,480c10.6,0,19.2,8.6,19.2,19.2c0,10.6-8.6,19.2-19.2,19.2c-1,0-2.1-0.1-3.1-0.3l-2.3-0.4v2.3v30.5l-13.8-16.9      v-34.5C371.3,488.6,379.9,480,390.5,480z M383.1,504.1c0.8,0.5,1.6,0.9,2.5,0.9c0.1,0,0.2,0,0.3,0c0.3,0,0.5,0,0.8-0.1      c0.6,1.6,1.9,2.3,2.8,2.7c0.7,0.3,1.3,0.4,1.9,0.4c1.2,0,2.3-0.5,3.4-1.5c0.9-0.8,1.3-1.9,1.4-2.9c1.9-0.1,3.5-1,4.2-2.5      c0.6-1.2,0.6-2.5,0-3.7c-0.4-0.9-1.1-1.7-1.9-2.1c0.2-1.4-0.3-2.5-0.8-3.1c-0.9-1.2-2.1-1.8-3.5-1.8c-0.8,0-1.6,0.2-2.3,0.6      c-0.3-0.3-0.7-0.6-1.1-0.9c-0.8-0.5-1.7-0.7-2.6-0.7c-1.7,0-2.8,0.9-3.1,1.1c-1.6,1.3-2,3-1.7,4.6c-0.4,0.2-0.7,0.4-1,0.7      c-0.3,0.3-0.5,0.5-0.6,0.7c-0.8,1.1-1.1,2.5-1,3.9C381.1,501.9,381.9,503.2,383.1,504.1z"/>
				<path d="M386.5,492c-1.9,1.6-0.8,3.8-0.5,4.4c-0.8,0.1-1.6,0.4-2.2,0.9c-0.2,0.1-0.3,0.3-0.4,0.5c-0.5,0.7-0.7,1.6-0.6,2.5      c0.1,1,0.6,1.7,1.4,2.3c0.4,0.3,1,0.5,1.5,0.5c0.1,0,0.1,0,0.2,0c0.6,0,1.1-0.2,1.6-0.4c0.1,0,0.7-0.3,0.7-0.4      c-0.1,2.3,0.8,3.2,1.9,3.6c0.4,0.1,0.8,0.3,1.2,0.3c0.6,0,1.3-0.3,2.1-1c1.3-1.1,0.7-3.9,0.7-3.9c0.4,0.3,1.1,0.5,1.9,0.5      c1,0,2.1-0.4,2.5-1.4c0.8-1.7-0.5-3.1-1.1-3.3c-0.6-0.2-1.6-0.3-1.6-0.3c1.4-2.1,0.3-3.2,0.3-3.2c-0.5-0.8-1.2-1-1.9-1      c-0.9,0-1.8,0.5-2,1c-0.5,0.9-0.8,1.3-0.8,1.3c-0.2-1.1-0.6-2.2-1.6-2.8c-0.6-0.3-1.1-0.4-1.6-0.4      C387.2,491.4,386.5,492,386.5,492z M380.9,500.4c-0.2-1.5,0.2-2.8,1-3.9c0.2-0.2,0.4-0.5,0.6-0.7c0.3-0.3,0.6-0.5,1-0.7      c-0.2-1.5,0.1-3.2,1.7-4.6c0.3-0.3,1.5-1.1,3.1-1.1c0.9,0,1.8,0.2,2.6,0.7c0.4,0.2,0.8,0.5,1.1,0.9c0.7-0.4,1.5-0.6,2.3-0.6      c1.4,0,2.6,0.6,3.5,1.8c0.5,0.6,1,1.7,0.8,3.1c0.8,0.4,1.5,1.2,1.9,2.1c0.5,1.2,0.5,2.5,0,3.7c-0.7,1.5-2.3,2.5-4.2,2.5      c-0.1,1-0.5,2.1-1.4,2.9c-1.1,1-2.2,1.5-3.4,1.5c-0.6,0-1.2-0.1-1.9-0.4c-0.9-0.3-2.1-1.1-2.8-2.7c-0.3,0-0.5,0.1-0.8,0.1      c-0.1,0-0.2,0-0.3,0c-0.9-0.1-1.8-0.4-2.5-0.9C381.9,503.2,381.1,501.9,380.9,500.4z"/>
				<path d="M369.3,499.2c0-11.7,9.5-21.2,21.2-21.2c11.7,0,21.2,9.5,21.2,21.2c0,11.7-9.5,21.2-21.2,21.2c-1.2,0-2.3-0.1-3.4-0.3      v36.1l-17.8-21.8V499.2z M390.5,480c-10.6,0-19.2,8.6-19.2,19.2v34.5l13.8,16.9v-30.5v-2.3l2.3,0.4c1,0.2,2.1,0.3,3.1,0.3      c10.6,0,19.2-8.6,19.2-19.2C409.8,488.6,401.1,480,390.5,480z"/>
				<path class="st4" d="M351.3,523.9c0.1-0.1,0.1-0.2,0.2-0.3c-0.1,0.2-0.3,0.4-0.4,0.6C351.1,524.1,351.2,524,351.3,523.9z"/>
				<path d="M350.7,524.7c0.1-0.1,0.2-0.2,0.3-0.4C350.9,524.5,350.8,524.6,350.7,524.7z"/>
				<path class="st4" d="M328.3,480.9c1.1,0.5,1.9,1.4,2.6,2.5l18.9,32.7c1.2,2,1.2,4.5,0,6.5c-1.2,2-3.3,3.3-5.6,3.3h-37.8      c-2.3,0-4.5-1.2-5.6-3.3c-1.2-2-1.2-4.5,0-6.5l18.9-32.7c1.3-2.2,3.5-3.2,5.6-3.2c0.9,0,1.9,0.2,2.7,0.6      C328.1,480.8,328.2,480.9,328.3,480.9z"/>
				<path d="M328.8,478.9c4-1.8,8.7-0.4,10.9,3.5l18.9,32.7c1.5,2.7,1.5,5.8,0,8.5c-1.5,2.7-4.3,4.3-7.4,4.3h-7.1c2.1,0,4-0.7,5.5-2      h1.6c2.3,0,4.5-1.2,5.6-3.3c1.2-2,1.2-4.5,0-6.5L338,483.4c-1.6-2.8-4.5-3.6-7.1-3.1c-0.5-0.5-1.1-0.8-1.7-1.1      C329.1,479.1,328.9,479,328.8,478.9z"/>
				<path class="st4" d="M330.9,480.3c2.5-0.5,5.4,0.3,7.1,3.1l18.9,32.7c1.2,2,1.2,4.5,0,6.5c-1.2,2-3.3,3.3-5.6,3.3h-1.6      c0.2-0.2,0.4-0.3,0.5-0.5c0.1-0.1,0.2-0.2,0.3-0.3c0.1-0.1,0.2-0.2,0.3-0.4c0.1-0.1,0.2-0.2,0.3-0.4c0,0,0-0.1,0.1-0.1      c0,0,0,0,0,0c0.1-0.1,0.1-0.2,0.2-0.3c-0.1,0.1-0.1,0.2-0.2,0.3c0.1-0.2,0.3-0.4,0.4-0.6c-0.1,0.1-0.1,0.2-0.2,0.3      c0.1-0.1,0.1-0.2,0.2-0.3c1.5-2.7,1.5-5.8,0-8.5l-18.9-32.7c-0.1-0.2-0.2-0.4-0.4-0.6c-0.1-0.1-0.2-0.3-0.3-0.4      c-0.1-0.1-0.2-0.3-0.3-0.4c-0.1-0.1-0.2-0.2-0.3-0.3c-0.1-0.1-0.1-0.1-0.2-0.2C331.1,480.5,331,480.4,330.9,480.3      C331,480.3,330.9,480.3,330.9,480.3z"/>
				<path d="M328.8,478.9c0.2,0.1,0.3,0.1,0.5,0.2c0.6,0.3,1.2,0.7,1.7,1.1c0,0,0.1,0,0.1,0.1c0.1,0.1,0.1,0.1,0.2,0.2      c0.1,0.1,0.1,0.1,0.2,0.2c0.1,0.1,0.2,0.2,0.3,0.3c0.1,0.1,0.2,0.2,0.3,0.4c0.1,0.1,0.2,0.3,0.3,0.4c0.1,0.2,0.3,0.4,0.4,0.6      l18.9,32.7c1.5,2.7,1.5,5.8,0,8.5c-0.1,0.1-0.1,0.2-0.2,0.3c-0.1,0.1-0.1,0.2-0.2,0.3c0,0,0,0,0,0c0,0-0.1,0.1-0.1,0.1      c-0.1,0.1-0.2,0.3-0.3,0.4c-0.1,0.1-0.2,0.3-0.3,0.4c-0.1,0.1-0.2,0.2-0.3,0.3c-0.2,0.2-0.3,0.3-0.5,0.5c-1.5,1.3-3.4,2-5.5,2      v-2c2.4,0,4.4-1.2,5.6-3.3c1.2-2,1.2-4.5,0-6.5l-18.9-32.7c-0.6-1.1-1.5-1.9-2.6-2.5c-0.1-0.1-0.2-0.1-0.4-0.2l-1.3-0.7l1.7-0.9      C328.4,479.1,328.6,479,328.8,478.9z"/>
				<path d="M306.3,527.8c-3.1,0-5.8-1.6-7.4-4.3c-1.5-2.7-1.5-5.8,0-8.5l18.9-32.7c2.2-3.8,6.9-5.3,10.9-3.5      c-0.2,0.1-0.3,0.1-0.5,0.2l-1.7,0.9l1.3,0.7c-0.8-0.4-1.8-0.6-2.7-0.6c-2.1,0-4.3,1-5.6,3.2l-18.9,32.7c-1.2,2-1.2,4.5,0,6.5      c1.2,2,3.3,3.3,5.6,3.3h37.8v2H306.3z"/>
				<path d="M251,508.3c0.3,2.7,1.7,5,4.1,6.7c1.3,1,2.9,1.6,4.6,1.7c0.2,0,0.4,0,0.5,0c1.3,0,2.6-0.3,3.8-0.8      c0.5,3.5,2.4,5.9,5.5,7.1c1.3,0.5,2.4,0.7,3.5,0.7c2.1,0,4.1-0.9,6.2-2.7c2.2-2,2.6-5.3,2.6-7.8c0.7,0.1,1.5,0.2,2.2,0.2      c0.7,0,1.4-0.1,2.1-0.2l0.5,0.8l9.5,16.6c-14.3,12.9-36.4,11.7-49.3-2.7c-5.7-6.4-8.9-14.7-8.9-23.3c0-19.2,15.6-34.9,34.9-34.9      c8.5,0,16.7,3.1,23.1,8.7l-8.8,15.7c-0.1-1.2-0.6-2.3-1.3-3.2c-1.5-2.1-3.6-3.2-6-3.2c-2.3,0-4.7,1.2-6,2.8      c-0.8-1.6-2-2.9-3.4-3.7c-1.5-0.9-3.1-1.3-4.7-1.3c-2,0-4,0.7-5.5,2c-3.6,3-3.8,7-2.6,10.4c-1.5,0.4-2.7,1.1-3.7,2      c-0.5,0.4-0.9,0.9-1.2,1.4C251.3,503.1,250.7,505.6,251,508.3z"/>
				<path d="M254.3,502.3c-1.2,1.7-1.6,3.8-1.4,5.8c0.3,2.3,1.4,4,3.3,5.4c1,0.8,2.3,1.2,3.6,1.3c0.1,0,0.3,0,0.4,0v0      c1.3,0,2.6-0.4,3.9-0.9c0.2-0.1,1.8-0.8,1.8-1.1c-0.3,5.3,1.8,7.5,4.4,8.4c1,0.4,1.9,0.6,2.8,0.6c1.5,0,3.1-0.6,4.9-2.2      c3-2.6,1.7-9.3,1.7-9.3c1,0.8,2.7,1.2,4.4,1.2c2.4,0,5-0.9,6-3.2c1.8-3.9-1.2-7.4-2.7-7.9c-1.5-0.5-3.8-0.8-3.8-0.8      c3.2-4.8,0.7-7.6,0.7-7.6c-1.3-1.8-2.9-2.5-4.4-2.5c-2.1,0-4.1,1.3-4.8,2.5c-1.1,2-1.8,3-1.8,3c-0.4-2.5-1.5-5.3-3.8-6.6      c-1.4-0.8-2.7-1.1-3.8-1.1c-1.6,0-3.1,0.5-4.3,1.5c-4.6,3.8-1.9,9.1-1.1,10.3c-1.9,0.2-3.8,0.8-5.2,2      C254.9,501.6,254.5,501.9,254.3,502.3z M238,504.6c0,8.6,3.2,16.9,8.9,23.3c12.9,14.3,34.9,15.5,49.3,2.7l-9.5-16.6l-0.5-0.8      c-0.7,0.1-1.4,0.2-2.1,0.2c-0.8,0-1.5-0.1-2.2-0.2c0,2.5-0.4,5.9-2.6,7.8c-2.1,1.8-4.1,2.7-6.2,2.7c-1.1,0-2.2-0.2-3.5-0.7      c-3.2-1.2-5-3.5-5.5-7.1c-1.2,0.5-2.5,0.8-3.8,0.8c-0.2,0-0.4,0-0.5,0c-1.6-0.1-3.2-0.7-4.6-1.7c-2.4-1.7-3.7-3.9-4.1-6.7      c-0.3-2.7,0.3-5.2,1.7-7.1c0.4-0.5,0.8-0.9,1.2-1.4c1-0.9,2.2-1.6,3.7-2c-1.2-3.4-1-7.4,2.6-10.4c1.5-1.3,3.5-2,5.5-2      c1.6,0,3.2,0.5,4.7,1.3c1.4,0.8,2.5,2.1,3.4,3.7c1.3-1.6,3.7-2.8,6-2.8c2.4,0,4.5,1.1,6,3.2c0.7,0.9,1.1,2,1.3,3.2l8.8-15.7      c-6.4-5.6-14.6-8.7-23.1-8.7C253.7,469.7,238,485.3,238,504.6z M236.1,504.6c0-20.3,16.5-36.8,36.8-36.8h0      c9.5,0,18.6,3.7,25.4,10.2l-11.1,19.8c0.3,0.1,0.6,0.2,0.9,0.3c1.6,0.5,3.3,2.2,4.2,4.3c1,2.2,1,4.7-0.1,6.9      c-0.8,1.7-2.2,3-4,3.8l10.3,17.9c-6.9,6.7-16.1,10.5-25.7,10.5C252.6,541.3,236.1,524.9,236.1,504.6z"/>
				<path d="M189.2,480c2.7,0,3.9,0.6,6.3,4.4c2.4,3.9,10.6,16.6,10.7,16.8l1.8,2.9v-19.5c0-1,1.4-4.5,5.4-4.5h0c0.5,0,2.1,0,3.5,1      c1.9,1.4,2.8,4,2.8,7.9v26.4c0,8.3-3.2,10.6-5,10.6c-1.3,0-4.7-1.2-6.4-4.7c-1.8-3.7-11.2-19.9-11.6-20.5l-1.9-3.2V520      c0,5.8-3.2,5.8-5.7,5.8c-2.3,0-6.7-1.5-6.7-7v-30.4C182.5,481.8,186.9,480,189.2,480z"/>
				<path d="M180.5,488.5c0-7.7,5.2-10.4,8.7-10.4c3.6,0,5.4,1.2,8,5.3c1.7,2.8,6.3,9.9,8.9,13.9v-12.7c0-2.3,2.5-6.5,7.4-6.5v1l0-1      c0.7,0,2.8,0,4.7,1.4c2.4,1.8,3.6,5,3.6,9.5v26.4c0,12.2-6.3,12.6-7,12.6c-2.3,0-6.3-1.8-8.2-5.8c-1.3-2.6-6.7-12.1-9.6-17.2      V520c0,7.8-5.2,7.8-7.7,7.8c-3.5,0-8.7-2.4-8.7-9V488.5z M189.2,480c-2.3,0-6.7,1.8-6.7,8.4v30.4c0,5.5,4.4,7,6.7,7      c2.6,0,5.7,0,5.7-5.8v-22.6l1.9,3.2c0.4,0.7,9.8,16.8,11.6,20.5c1.6,3.5,5.1,4.7,6.4,4.7c1.9,0,5-2.2,5-10.6v-26.4      c0-3.9-0.9-6.5-2.8-7.9c-1.4-1-3-1-3.5-1h0c-4.1,0-5.4,3.5-5.4,4.5V504l-1.8-2.9c-0.1-0.1-8.3-12.8-10.7-16.8      C193.1,480.6,191.9,480,189.2,480z"/>
				<path d="M151.9,483.1c-0.8,0-1.6,0.2-2.3,0.6c-0.3-0.3-0.6-0.6-1-0.8c-0.8-0.5-1.7-0.7-2.6-0.7l-0.1-1.9c0.5,0,1-0.1,1.5-0.1      c11.6,0,21.1,8.6,22.5,19.9H151c0.5-0.2,1-0.6,1.5-1c0.9-0.8,1.3-1.9,1.4-2.9c1.9-0.1,3.4-1,4.1-2.5c0.6-1.2,0.6-2.5,0-3.7      c-0.4-0.9-1.1-1.7-1.9-2.1c0.2-1.3-0.3-2.4-0.8-3C154.5,483.7,153.3,483.1,151.9,483.1z"/>
				<path d="M149.4,512.9h18.4c-3.8,7.7-11.6,12.8-20.4,12.8c-12.5,0-22.7-10.2-22.7-22.7c0-12,9.4-21.9,21.2-22.7l0.1,1.9      c-1.7,0-2.8,0.9-3.1,1.1c-1.4,1.2-2,2.8-1.7,4.5c-0.4,0.2-0.7,0.4-1,0.7c-0.3,0.2-0.5,0.5-0.7,0.7c-0.8,1-1.1,2.4-0.9,3.8      c0.2,1.5,0.9,2.7,2.2,3.6c0.8,0.5,1.6,0.9,2.5,0.9c0.1,0,0.2,0,0.3,0c0.3,0,0.5,0,0.7-0.1c0.6,1.5,1.7,2.2,2.6,2.5h-8.4h-2.3      l0.3,2.2C137.1,506,140.3,512.9,149.4,512.9z"/>
				<path d="M147.4,478.2c13.4,0,24.3,10.6,24.7,23.9h-33.4c0,0,1,8.8,10.7,8.8h21.4c-3.3,9.7-12.5,16.8-23.4,16.8      c-13.7,0-24.7-11.1-24.7-24.7C122.7,489.2,133.7,478.2,147.4,478.2z M153.8,486.1c-0.5-0.8-1.2-1-1.9-1c-0.9,0-1.7,0.5-2,1      c-0.5,0.9-0.7,1.3-0.7,1.3c-0.2-1-0.6-2.2-1.6-2.8c-0.6-0.3-1.1-0.5-1.6-0.5c-1.1,0-1.8,0.6-1.8,0.6c-1.9,1.6-0.8,3.8-0.5,4.3      c-0.8,0.1-1.6,0.4-2.1,0.9c-0.2,0.1-0.3,0.3-0.4,0.5c-0.5,0.7-0.7,1.6-0.6,2.4c0.1,0.9,0.6,1.7,1.4,2.2c0.4,0.3,0.9,0.5,1.5,0.5      c0.1,0,0.1,0,0.2,0c0.5,0,1.1-0.2,1.6-0.4c0.1,0,0.7-0.3,0.7-0.4c-0.1,2.2,0.8,3.1,1.8,3.5c0.4,0.1,0.8,0.2,1.2,0.2      c0.6,0,1.3-0.3,2.1-0.9c1.2-1.1,0.7-3.9,0.7-3.9c0.4,0.3,1.1,0.5,1.8,0.5c1,0,2.1-0.4,2.5-1.4c0.8-1.6-0.5-3.1-1.1-3.3      c-0.6-0.2-1.6-0.3-1.6-0.3C154.8,487.2,153.8,486.1,153.8,486.1z M151.9,483.1c1.4,0,2.6,0.6,3.4,1.8c0.5,0.6,0.9,1.7,0.8,3      c0.8,0.4,1.5,1.2,1.9,2.1c0.5,1.2,0.5,2.5,0,3.7c-0.7,1.5-2.2,2.5-4.1,2.5c-0.2,1-0.5,2.1-1.4,2.9c-0.5,0.4-1,0.8-1.5,1h18.9      c-1.4-11.3-10.9-19.9-22.5-19.9c-0.5,0-1,0-1.5,0.1c-11.8,0.8-21.2,10.6-21.2,22.7c0,12.5,10.2,22.7,22.7,22.7      c8.8,0,16.6-5,20.4-12.8h-18.4c-9.1,0-12.3-6.9-12.7-10.6l-0.3-2.2h2.3h8.4c-0.8-0.4-1.9-1.1-2.6-2.5c-0.2,0-0.5,0.1-0.7,0.1      c-0.1,0-0.2,0-0.3,0c-0.9,0-1.8-0.4-2.5-0.9c-1.2-0.9-2-2.1-2.2-3.6c-0.2-1.4,0.1-2.8,0.9-3.8c0.2-0.3,0.4-0.5,0.7-0.7      c0.3-0.3,0.6-0.5,1-0.7c-0.3-1.7,0.3-3.4,1.7-4.5c0.3-0.3,1.4-1.1,3.1-1.1c0.9,0,1.8,0.2,2.6,0.7c0.4,0.2,0.7,0.5,1,0.8      C150.3,483.3,151.1,483.1,151.9,483.1z"/>
			</g>
			<g>
				<polygon class="st5" points="452,482.9 434.9,468.5 417.8,482.9 417.8,494.9 432.4,508.9 417.8,508.9 417.8,521.5 434.9,538       452,521.5 452,509.5 437.4,495.5 452,495.5     "/>
				<path class="st5" d="M450,493.5h-14.1v-9.1c0-0.6-0.5-1-1-1c-0.6,0-1,0.4-1,1v10.6l0.6,0.6l15.5,14.9v10.3l-15.1,14.6      l-15.1-14.6v-9.7h14.1v9.1c0,0.6,0.4,1,1,1c0.5,0,1-0.4,1-1v-10.5l-0.8-0.8L419.8,494v-10.2l15.1-12.7l15.1,12.7V493.5z"/>
			</g>
		</g>
	</g>
</g>
</svg>