<svg xmlns="http://www.w3.org/2000/svg" id="Layer_1" data-name="Layer 1" viewBox="145.63 461.26 787.53 157.24"><defs><style>.cls-1{fill:#fff;}</style></defs><title>time capsul1 (1)</title><polygon points="407.54 595.5 444.54 595.5 447.97 578.8 426.95 578.8 433.52 548.07 448.5 548.07 451.99 530.77 437.22 530.77 443.36 502.07 463.99 502.07 467.43 485.37 430.85 485.37 407.54 595.5"/><path d="M750.88,502.07h20.63l3.44-16.7H738.37l-20.15,95.18H699.05l20.58-95.18H703.07L679.6,595.5h72.46l3.44-16.7h-21L741,548.07h15l3.5-17.3H744.74Z"/><polygon points="349.36 485.37 348.23 485.37 304.34 485.37 300.78 501.93 316.11 501.93 295.98 595.5 312.38 595.5 332.25 501.93 344.73 501.93 324.92 595.5 340.75 595.5 364.31 485.37 349.36 485.37"/><path d="M408,485.37l-22.51,56,1.45-56H367.2L343.83,595.5H359L374.51,522a.25.25,0,0,1,.49.07l-4.1,73.48h6.63L403.92,522a.25.25,0,0,1,.48.13L389.53,595.5h15.16l22.54-110.13Z"/><path d="M700.18,485.37H684.3L664,576.9a5,5,0,0,1-5.44,3.9h0a5,5,0,0,1-4.31-6l19.13-89.46H657.55l-4.2,19.11c.11-6.12-1.05-13.81-6.79-17.54-9.09-5.92-29.21-3.69-35.91,17.67A20.45,20.45,0,0,0,590,485.12l-18.86.25L549.8,591l6.32-105.6H537L496.79,595.5h15.44l7.55-21.93c4.65.06,10.84-.15,16-.38l-1.62,22.31h29.67l9.65-44.79a34.45,34.45,0,0,0,34.43-28.25l.57-3.13c.23,4.11,1.44,11.06,5.87,21,7.72,17.29,13.39,23.68,7.36,36.1,0,0-3.7,7.11-9.57,4.54s-1.13-18-1.13-18l-16.23,1.37c-.72.06-1.58,7.74-1.65,8.38-.6,5.15-.62,10.82,1.62,15.61,3.56,7.64,13.4,8.82,20.91,7.88a24.49,24.49,0,0,0,19.07-13,66.24,66.24,0,0,0,2.87-6.27c-.09,10.05,5.11,18.59,14.92,19.4h0c13.82,1.16,24.5-8.67,29.14-21.76ZM525.82,556l12.94-37.61a.52.52,0,0,1,1,.21L537,556Zm68.28-44.8L591.23,525a12.2,12.2,0,0,1-12.54,9.68l-1.73-.08,7.07-32.8,3,.18C591.73,502.3,594.26,506.17,594.1,511.23Zm46.5,51.23c0-6.07-1.64-11.55-4.17-17.28-5.07-11.46-15.92-28.7-10.73-39.67s13.86-8.2,10,9.28l15.68-1.36Z"/><path d="M868,485.37l-16.64,36.29-1.21-36.29H821.89L808.1,547.64a.34.34,0,0,1-.68,0l-4.18-62.22H789.41l-24,110.13h15.6L794.19,533a.14.14,0,0,1,.27,0l4.11,62.51H813l21.73-102.64,2.55,55.7-9.89,46.94h16.16l9.77-47.43,29.91-62.7Z"/><path d="M500.81,523h14.95l3.62-17.6s2.25-14-8.12-19.38-29.06-.52-35,20.22l-12.42,58.12s-10.25,30.68,12.54,32.1,30.75-22.57,31.6-38.73l-14.6.12L489.72,574s-1.69,7.72-8.36,6.75-1.69-13.32,1.61-30.48c0-.13,0-.26.07-.39,3.3-17.36,8.36-39.23,8.36-39.23s1.59-11.07,8.53-10.95S502.78,513.22,500.81,523Z"/><path d="M916.82,505.41v-1.63a7,7,0,0,0-7-7h-12v25.68h5.57V512h1.33L912,522.43h6.57l-8-10.75A6.27,6.27,0,0,0,916.82,505.41Zm-9.21,2.6h-4.23v-7.08h4.23a3.54,3.54,0,0,1,0,7.08Z"/><path d="M907.6,484.37a25.79,25.79,0,1,0,25.56,25.79A25.71,25.71,0,0,0,907.6,484.37Zm0,45a19.25,19.25,0,1,1,19-19.25A19.16,19.16,0,0,1,907.6,529.41Z"/><path d="M279.18,596.13a78.62,78.62,0,1,1-.52-113L254.8,525.39c.7.17,1.4.36,2.05.56,3.45,1.1,7.06,4.75,9,9.09a17.73,17.73,0,0,1-.14,14.79,16.35,16.35,0,0,1-8.49,8.1Z"/><path class="cls-1" d="M261,547.66c-3.88,8.36-16.85,8.24-22.32,4.3,0,0,2.7,14.33-3.63,19.92s-11.13,5.55-16.62,3.5-10.08-6.63-9.43-18c0,.66-3.31,2-3.79,2.27a18.77,18.77,0,0,1-9.12,2,14.52,14.52,0,0,1-7.6-2.76,16.27,16.27,0,0,1-7-11.47,16.94,16.94,0,0,1,2.89-12.33,17.64,17.64,0,0,1,2.1-2.3c2.93-2.65,7-3.88,11-4.36-1.6-2.67-7.4-13.86,2.43-22,0,0,7.23-6.73,17.19-1,5,2.88,7.23,8.84,8.13,14.09A65.62,65.62,0,0,0,229,513c2.29-4.34,13-9.34,19.67,0,0,0,5.37,5.89-1.58,16.28a54.94,54.94,0,0,1,8.18,1.59C258.53,531.9,264.88,539.3,261,547.66Z"/></svg>